<?xml version="1.0" standalone="no"?>
<!DOCTYPE svg PUBLIC "-//W3C//DTD SVG 20010904//EN"
 "http://www.w3.org/TR/2001/REC-SVG-20010904/DTD/svg10.dtd">
<svg version="1.0" xmlns="http://www.w3.org/2000/svg"
 width="512.000000pt" height="512.000000pt" viewBox="0 0 512.000000 512.000000"
 preserveAspectRatio="xMidYMid meet">
<metadata>
Created by potrace 1.14, written by Peter Selinger 2001-2017
</metadata>
<g transform="translate(0.000000,512.000000) scale(0.100000,-0.100000)"
fill="#000000" stroke="none">
<path d="M1506 4893 l-227 -227 1023 -1023 c1065 -1064 1051 -1050 1035 -1114
-4 -14 -443 -461 -1031 -1050 l-1024 -1026 227 -227 226 -226 1030 1032 c567
568 1044 1050 1060 1071 59 75 116 199 141 307 11 46 13 215 3 273 -18 110
-70 231 -138 322 -21 28 -502 515 -1068 1083 l-1030 1032 -227 -227z"/>
</g>
</svg>
